<svg width="512" height="512" viewBox="0 0 512 512" fill="none" xmlns="http://www.w3.org/2000/svg">
<g clip-path="url(#clip0_238_2)">
<path d="M401.837 21.8752C408.938 21.8303 416.045 26.6505 415.905 36.1624V218.332C407.123 214.455 397.225 213.337 387.769 215.239V190.911H331.497V247.183H349.876L325.727 280.678L267.471 279.455C229.363 278.656 206.872 321.893 229.403 352.637L263.798 399.57L258.099 415.89H106.409V359.728H50.1362V415.89L36.0679 415.999C28.9656 416.045 21.86 411.224 22.0005 401.712V36.1624C21.8792 28.3929 28.0786 21.9963 35.8481 21.8752L50.1362 21.9846V78.3665H106.409V21.9846H331.497V78.3665H387.769V21.9846L401.837 21.8752ZM50.1362 275.32V331.371H106.409V275.32H50.1362ZM176.089 134.749C168.535 135.059 162.565 141.257 162.571 148.817V289.497C162.568 300.557 174.74 307.294 184.112 301.422L296.657 231.082C305.46 225.57 305.46 212.745 296.657 207.233L184.112 136.892C181.72 135.401 178.917 134.637 176.089 134.749ZM50.1362 190.911V247.183H106.409V190.911H50.1362ZM50.1362 106.503V162.775H106.409V106.503H50.1362ZM331.497 106.503V162.775H387.769V106.503H331.497Z" fill="white"/>
<path d="M388.171 253.915C393.502 246.52 404.999 248.447 407.627 257.177L428.043 325.002C429.086 328.465 431.764 331.195 435.208 332.302L502.675 354.008C511.352 356.8 513.064 368.328 505.572 373.52L447.374 413.859C444.397 415.923 442.626 419.319 442.64 422.941L442.904 493.746C442.938 502.864 432.502 508.062 425.245 502.542L368.866 459.658C365.983 457.466 362.206 456.833 358.767 457.965L291.483 480.114C282.823 482.965 274.653 474.647 277.659 466.039L301.004 399.192C302.198 395.773 301.632 391.984 299.491 389.063L257.633 331.947C252.245 324.595 257.624 314.256 266.737 314.447L337.594 315.935C341.21 316.011 344.632 314.304 346.748 311.37L388.171 253.915Z" fill="white"/>
</g>
<defs>
<clipPath id="clip0_238_2">
<rect width="512" height="512" fill="white"/>
</clipPath>
</defs>
</svg>
